{"accessors":{"accessor_0":{"bufferView":"bufferView_0","byteOffset":0,"byteStride":0,"componentType":5126,"count":4548,"min":[-10.5,0,-10.5],"max":[10.5,21,10.5],"type":"VEC3"},"accessor_1":{"bufferView":"bufferView_0","byteOffset":54576,"byteStride":0,"componentType":5126,"count":4548,"min":[-1,-1,-1],"max":[1,1,1],"type":"VEC3"},"accessor_2":{"bufferView":"bufferView_0","byteOffset":109152,"byteStride":0,"componentType":5126,"count":4548,"min":[0.03320309892296791,0.5],"max":[0.03320309892296791,0.5],"type":"VEC2"},"accessor_3":{"bufferView":"bufferView_1","byteOffset":0,"byteStride":0,"componentType":5123,"count":9456,"min":[0],"max":[4547],"type":"SCALAR"}},"asset":{"generator":"obj2gltf","profile":{"api":"WebGL","version":"1.0"},"version":"1.0","premultipliedAlpha":true},"buffers":{"buffer":{"byteLength":164448,"uri":"data:application/octet-stream;base64,","type":"arraybuffer"}},"bufferViews":{"bufferView_0":{"buffer":"buffer","byteLength":145536,"byteOffset":0,"target":34962},"bufferView_1":{"buffer":"buffer","byteLength":18912,"byteOffset":145536,"target":34963}},"extensionsUsed":[],"images":{"castle":{"name":"castle","uri":"data:image/png;base64,"}},"materials":{"palette":{"technique":"technique0","values":{"ambient":[0,0,0,1],"diffuse":"texture_castle","emission":[0,0,0,1],"specular":[0,0,0,1],"shininess":0,"transparency":1}}},"meshes":{"castle_1":{"name":"castle_1","primitives":[{"attributes":{"POSITION":"accessor_0","NORMAL":"accessor_1","TEXCOORD_0":"accessor_2"},"indices":"accessor_3","material":"palette","mode":4}]}},"nodes":{"castle":{"name":"castle","meshes":["castle_1"],"children":[],"matrix":[1,0,0,0,0,1,0,0,0,0,1,0,0,0,0,1]}},"samplers":{"sampler":{"magFilter":9729,"minFilter":9986,"wrapS":10497,"wrapT":10497}},"scene":"scene","scenes":{"scene":{"nodes":["castle"]}},"textures":{"texture_castle":{"format":6408,"internalFormat":6408,"sampler":"sampler","source":"castle","target":3553,"type":5121}},"animations":{},"cameras":{},"programs":{"program0":{"attributes":["a_position","a_normal","a_texcoord_0"],"fragmentShader":"fragmentShader0","vertexShader":"vertexShader0"}},"shaders":{"vertexShader0":{"type":35633,"uri":"data:text/plain;base64,"},"fragmentShader0":{"type":35632,"uri":"data:text/plain;base64,"}},"skins":{},"techniques":{"technique0":{"attributes":{"a_position":"position","a_normal":"normal","a_texcoord_0":"texcoord_0"},"parameters":{"modelViewMatrix":{"semantic":"MODELVIEW","type":35676},"projectionMatrix":{"semantic":"PROJECTION","type":35676},"normalMatrix":{"semantic":"MODELVIEWINVERSETRANSPOSE","type":35675},"ambient":{"type":35666},"diffuse":{"type":35678},"emission":{"type":35666},"specular":{"type":35666},"shininess":{"type":5126},"transparency":{"type":5126},"position":{"semantic":"POSITION","type":35665},"normal":{"semantic":"NORMAL","type":35665},"texcoord_0":{"semantic":"TEXCOORD_0","type":35664}},"program":"program0","states":{"enable":[2884,2929]},"uniforms":{"u_modelViewMatrix":"modelViewMatrix","u_projectionMatrix":"projectionMatrix","u_normalMatrix":"normalMatrix","u_ambient":"ambient","u_diffuse":"diffuse","u_emission":"emission","u_specular":"specular","u_shininess":"shininess","u_transparency":"transparency"}}}}
